<?xml version="1.0" encoding="UTF-8" standalone="no"?>
<svg
   xmlns:dc="http://purl.org/dc/elements/1.1/"
   xmlns:cc="http://creativecommons.org/ns#"
   xmlns:rdf="http://www.w3.org/1999/02/22-rdf-syntax-ns#"
   xmlns:svg="http://www.w3.org/2000/svg"
   xmlns="http://www.w3.org/2000/svg"
   id="svg8"
   version="1.1"
   viewBox="0 0 162.85118 162.85118"
   height="162.85118mm"
   width="162.85118mm">
  <defs
     id="defs2" />
  <metadata
     id="metadata5">
    <rdf:RDF>
      <cc:Work
         rdf:about="">
        <dc:format>image/svg+xml</dc:format>
        <dc:type
           rdf:resource="http://purl.org/dc/dcmitype/StillImage" />
        <dc:title></dc:title>
      </cc:Work>
    </rdf:RDF>
  </metadata>
  <g
     transform="translate(-38.392858,-60.226194)"
     id="layer1">
    <g
       id="text4587-0"
       style="font-style:normal;font-weight:normal;font-size:112.37309265px;line-height:1.25;font-family:sans-serif;letter-spacing:0px;word-spacing:0px;fill:#000000;fill-opacity:1;stroke:none;stroke-width:2.80932736"
       aria-label="Y"
       transform="translate(304.62591,-324.99541)">
      <path
         id="path4991"
         style="font-style:normal;font-variant:normal;font-weight:normal;font-stretch:normal;font-family:sans-serif;-inkscape-font-specification:sans-serif;fill:#000000;stroke:none;stroke-width:2.80932736"
         d="m -260.15646,448.25548 h 11.90672 l 22.71604,33.68998 22.55144,-33.68998 h 11.90672 l -28.97119,42.90809 v 39.01233 h -11.13854 v -39.01233 z" />
    </g>
    <path
       id="path4812-5-7"
       d="m 154.90622,135.68586 c -0.55888,-9.602 -4.65866,-18.49035 -11.63195,-25.14194 -12.54957,-11.97076 -31.54277,-13.66727 -45.862062,-4.52786 -1.04238,0.66533 -2.39828,0.54285 -3.29334,-0.31243 l -9.27636,-8.86409 c -1.2138,-1.15986 -1.089,-3.1493 0.26885,-4.13457 21.173802,-15.36129 50.873092,-13.9095 70.491182,4.83669 10.7568,10.27873 16.50568,23.8686 17.16951,37.68385 l 11.27447,-0.2905 c 4.77275,-0.12298 7.31073,5.61936 4.02227,9.10083 l -20.6177,21.82778 c -2.03857,2.15822 -5.43054,2.24561 -7.5763,0.19522 L 138.17293,145.3215 c -3.46137,-3.30755 -1.21905,-9.17306 3.55386,-9.29622 z"
       style="fill:currentColor;stroke:none;stroke-width:0.22393864" />
  </g>
</svg>
